<svg xmlns="http://www.w3.org/2000/svg" version="1.1" width="800px" height="800px" style="shape-rendering:geometricPrecision; text-rendering:geometricPrecision; image-rendering:optimizeQuality; fill-rule:evenodd; clip-rule:evenodd" xmlns:xlink="http://www.w3.org/1999/xlink">
	<g>
		<path style="opacity:0.999" fill="#fecf2f" d="M 154.5,-0.5 C 317.833,-0.5 481.167,-0.5 644.5,-0.5C 717.198,11.0223 766.365,51.3556 792,120.5C 795.354,131.786 797.854,143.119 799.5,154.5C 799.5,317.833 799.5,481.167 799.5,644.5C 787.978,717.198 747.644,766.365 678.5,792C 667.214,795.354 655.881,797.854 644.5,799.5C 481.167,799.5 317.833,799.5 154.5,799.5C 81.8016,787.978 32.6349,747.644 7,678.5C 3.64552,667.214 1.14552,655.881 -0.5,644.5C -0.5,481.167 -0.5,317.833 -0.5,154.5C 11.0223,81.8016 51.3556,32.6349 120.5,7C 131.786,3.64552 143.119,1.14552 154.5,-0.5 Z" />
	</g>
	<g>
		<path style="opacity:1" fill="#050037" d="M 116.5,99.5 C 146.588,99.0158 176.588,99.5158 206.5,101C 260.904,152.616 315.404,204.116 370,255.5C 344.304,203.61 318.138,151.777 291.5,100C 321.167,99.3333 350.833,99.3333 380.5,100C 432.711,142.546 485.211,184.713 538,226.5C 514.753,184.191 490.919,142.024 466.5,100C 496.167,99.3333 525.833,99.3333 555.5,100C 608.5,132.833 661.5,165.667 714.5,198.5C 714.833,199.167 715.167,199.833 715.5,200.5C 662.292,366.79 609.292,533.124 556.5,699.5C 527.167,699.5 497.833,699.5 468.5,699.5C 492.384,548.14 516.218,396.806 540,245.5C 486.599,396.538 433.099,547.538 379.5,698.5C 350.174,699.5 320.841,699.833 291.5,699.5C 318.506,557.155 345.339,414.822 372,272.5C 316.444,414.612 260.61,556.612 204.5,698.5C 175.174,699.5 145.841,699.833 116.5,699.5C 145.565,566.277 174.898,433.11 204.5,300C 175.292,233.087 145.959,166.253 116.5,99.5 Z" />
	</g>
</svg>
